<?xml version="1.0" standalone="no"?>
<!DOCTYPE svg PUBLIC "-//W3C//DTD SVG 20010904//EN"
 "http://www.w3.org/TR/2001/REC-SVG-20010904/DTD/svg10.dtd">
<svg version="1.0" xmlns="http://www.w3.org/2000/svg"
 width="283.000000pt" height="283.000000pt" viewBox="0 0 283.000000 283.000000"
 preserveAspectRatio="xMidYMid meet">
<metadata>
Created by potrace 1.14, written by Peter Selinger 2001-2017
</metadata>
<g transform="translate(0.000000,283.000000) scale(0.100000,-0.100000)"
fill="#000000" stroke="none">
<path d="M815 2808 c-79 -10 -119 -25 -156 -55 -78 -66 -81 -97 -81 -823 0
-338 3 -644 6 -680 10 -85 45 -158 92 -188 38 -25 50 -29 124 -40 l45 -7 1
-490 2 -489 22 -18 c19 -16 39 -19 111 -17 106 2 122 13 124 87 l1 47 104 0
105 0 5 50 5 50 38 -1 37 -1 0 63 0 64 -40 0 -40 0 0 44 0 44 -105 -2 c-58 0
-106 1 -106 4 -1 3 -2 130 -3 284 -1 182 2 279 9 282 5 1 30 5 55 8 125 13
189 77 208 204 4 26 7 344 7 707 0 603 -2 665 -18 717 -29 94 -85 137 -198
153 -74 11 -281 12 -354 3z m206 -347 c1 -14 2 -266 3 -560 1 -352 -3 -539 -9
-548 -13 -18 -46 -23 -62 -10 -10 7 -13 134 -13 573 0 615 -3 587 56 576 18
-3 24 -11 25 -31z"/>
<path d="M1737 2814 c-1 -1 -22 -4 -47 -5 -134 -9 -204 -70 -229 -200 -16 -87
-13 -1328 5 -1408 22 -105 82 -161 189 -176 28 -4 55 -11 60 -15 15 -12 12
-549 -2 -558 -7 -4 -67 -7 -135 -6 l-123 2 -2 -44 c-2 -42 -1 -44 27 -45 17
-1 36 -2 42 -3 8 -1 13 -21 13 -61 l0 -60 -43 1 -43 1 3 -51 3 -51 133 1 c72
0 132 -2 133 -5 0 -3 2 -24 4 -46 2 -28 11 -46 30 -63 24 -20 37 -23 103 -21
64 2 79 6 99 25 22 22 23 30 23 171 1 81 2 299 3 483 l2 335 55 7 c113 16 170
59 198 148 15 50 17 123 17 750 0 747 1 737 -52 808 -48 64 -119 83 -321 86
-78 1 -143 1 -145 0z m152 -330 c8 -8 8 -1122 0 -1136 -9 -14 -59 -13 -69 2
-4 7 -8 262 -8 566 0 595 0 588 49 579 12 -3 24 -7 28 -11z"/>
</g>
</svg>
